<?xml version="1.0" standalone="no"?>
<!DOCTYPE svg PUBLIC "-//W3C//DTD SVG 20010904//EN"
 "http://www.w3.org/TR/2001/REC-SVG-20010904/DTD/svg10.dtd">
<svg version="1.0" xmlns="http://www.w3.org/2000/svg"
 width="1000.000000pt" height="1000.000000pt" viewBox="0 0 1000.000000 1000.000000"
 preserveAspectRatio="xMidYMid meet">
<metadata>
Created by potrace 1.11, written by Peter Selinger 2001-2013
</metadata>
<g transform="translate(0.000000,1000.000000) scale(0.100000,-0.100000)"
fill="#000000" stroke="none">
<path d="M4739 9996 c-2 -2 -53 -7 -114 -10 -60 -4 -119 -9 -130 -11 -11 -2
-47 -7 -80 -10 -33 -3 -71 -7 -84 -10 -14 -2 -45 -7 -70 -10 -25 -3 -59 -8
-76 -11 -16 -2 -39 -6 -50 -8 -24 -5 -94 -17 -115 -22 -342 -65 -745 -195
-1095 -354 -1125 -510 -2058 -1468 -2531 -2602 -14 -35 -32 -76 -39 -93 -7
-16 -18 -46 -25 -65 -7 -19 -16 -44 -21 -55 -64 -147 -199 -646 -234 -865 -3
-19 -7 -46 -10 -60 -8 -41 -19 -124 -39 -295 -28 -227 -28 -820 -1 -1020 2
-16 9 -73 15 -125 13 -115 38 -268 44 -279 2 -3 7 -26 10 -51 9 -70 12 -83 61
-275 326 -1289 1171 -2410 2325 -3083 204 -119 374 -204 600 -300 99 -42 115
-48 285 -108 162 -57 405 -125 565 -159 90 -19 286 -55 329 -60 30 -4 63 -9
75 -11 12 -2 46 -7 76 -10 30 -3 69 -7 85 -9 207 -26 845 -27 1007 0 13 2 50
6 83 9 33 4 71 8 85 10 14 3 46 7 71 10 25 4 95 15 155 27 60 11 123 23 139
26 43 7 343 83 390 98 222 72 302 99 311 106 6 5 19 10 30 12 21 4 43 12 89
32 17 7 58 25 93 39 222 93 460 216 673 348 114 70 357 236 385 262 7 6 24 20
40 31 193 138 564 487 729 686 75 90 121 145 126 149 3 3 50 66 106 140 258
346 467 717 635 1128 99 242 237 708 264 889 3 21 7 45 9 53 8 30 41 247 50
330 3 30 8 69 10 85 20 145 27 686 12 875 -17 208 -37 363 -71 545 -2 11 -6
36 -10 55 -12 66 -15 79 -55 242 -326 1316 -1190 2456 -2373 3131 -105 60
-409 213 -484 244 -16 7 -56 23 -89 37 -199 83 -422 157 -652 216 -83 22 -165
42 -182 45 -17 3 -59 12 -93 20 -35 8 -79 16 -98 19 -19 2 -80 11 -135 20
-110 17 -149 22 -245 31 -36 4 -85 9 -110 11 -51 6 -646 14 -651 10z m851
-2841 c340 -69 615 -305 796 -685 68 -141 148 -409 188 -630 24 -130 24 -132
41 -275 13 -107 19 -270 19 -467 0 -120 2 -218 5 -218 3 0 35 -5 71 -10 36 -5
97 -12 135 -15 39 -3 93 -8 120 -11 28 -3 128 -7 223 -9 95 -2 187 -7 205 -11
129 -27 216 -140 222 -287 4 -94 -15 -152 -66 -199 -52 -48 -111 -61 -279 -61
-120 -1 -321 9 -390 18 -14 2 -47 6 -75 9 -27 4 -75 11 -105 16 -138 24 -125
28 -134 -45 -4 -34 -27 -148 -42 -207 -2 -10 -6 -27 -8 -38 -14 -63 -62 -227
-87 -300 -17 -47 -31 -89 -33 -95 -3 -10 -8 -23 -49 -125 -38 -95 -115 -247
-178 -353 -275 -457 -600 -679 -999 -681 -131 -1 -171 3 -270 29 -69 18 -212
78 -252 106 -14 11 -29 19 -32 19 -12 0 -112 75 -180 134 -190 165 -321 330
-518 644 -32 51 -58 95 -58 97 0 2 -14 28 -31 57 -43 72 -179 345 -219 438
-17 41 -41 95 -52 119 -27 61 -125 310 -155 396 -125 361 -248 765 -318 1045
-55 223 -119 502 -130 575 -6 35 -14 75 -19 93 -3 9 -7 35 -11 57 -3 22 -12
78 -20 125 -32 195 -40 273 -40 400 0 91 4 111 25 155 21 41 34 55 80 77 67
34 92 38 200 38 153 1 284 -50 361 -138 74 -86 104 -187 154 -517 9 -61 15
-95 25 -150 5 -27 11 -63 14 -80 3 -23 54 -283 70 -360 2 -5 8 -37 15 -70 7
-33 24 -107 38 -165 13 -58 26 -113 28 -122 2 -9 15 -61 30 -115 15 -54 28
-107 30 -117 26 -123 180 -600 278 -861 251 -668 536 -1085 793 -1160 150 -43
292 -2 421 122 94 92 176 227 278 458 64 146 157 489 191 710 3 22 8 43 10 47
2 4 -40 32 -93 64 -105 62 -205 131 -293 202 -70 57 -224 212 -275 277 -22 28
-43 52 -47 55 -18 14 -160 238 -200 316 -186 359 -287 787 -256 1079 16 153
85 323 165 410 93 100 241 172 398 195 58 9 234 5 285 -5z"/>
<path d="M5417 6535 c-81 -42 -115 -127 -112 -281 3 -123 49 -337 95 -439 5
-11 23 -53 39 -92 79 -192 219 -380 375 -507 67 -54 136 -99 142 -93 10 10 2
438 -11 527 -2 19 -7 60 -10 90 -4 30 -8 62 -10 70 -2 8 -7 35 -10 60 -4 25
-15 81 -26 125 -73 290 -181 481 -303 536 -49 22 -130 24 -169 4z"/>
</g>
</svg>
